<svg width="22" height="23" viewBox="0 0 22 23" fill="none" xmlns="http://www.w3.org/2000/svg">
<g filter="url(#filter0_d)">
<path fill-rule="evenodd" clip-rule="evenodd" d="M10.3333 2.66668C7.75592 2.66668 5.66659 4.75601 5.66659 7.33334C5.66659 9.91067 7.75592 12 10.3333 12C12.9106 12 14.9999 9.91067 14.9999 7.33334C14.9999 4.75601 12.9106 2.66668 10.3333 2.66668ZM4.33325 7.33334C4.33325 4.01963 7.01954 1.33334 10.3333 1.33334C13.647 1.33334 16.3333 4.01963 16.3333 7.33334C16.3333 10.6471 13.647 13.3333 10.3333 13.3333C7.01954 13.3333 4.33325 10.6471 4.33325 7.33334Z" fill="white"/>
<path fill-rule="evenodd" clip-rule="evenodd" d="M13.6286 10.6286C13.889 10.3682 14.3111 10.3682 14.5714 10.6286L17.4714 13.5286C17.7318 13.7889 17.7318 14.211 17.4714 14.4714C17.2111 14.7317 16.789 14.7317 16.5286 14.4714L13.6286 11.5714C13.3683 11.311 13.3683 10.8889 13.6286 10.6286Z" fill="white"/>
</g>
<defs>
<filter id="filter0_d" x="-1" y="0" width="24" height="24" filterUnits="userSpaceOnUse" color-interpolation-filters="sRGB">
<feFlood flood-opacity="0" result="BackgroundImageFix"/>
<feColorMatrix in="SourceAlpha" type="matrix" values="0 0 0 0 0 0 0 0 0 0 0 0 0 0 0 0 0 0 127 0"/>
<feOffset dy="4"/>
<feGaussianBlur stdDeviation="2"/>
<feColorMatrix type="matrix" values="0 0 0 0 0 0 0 0 0 0 0 0 0 0 0 0 0 0 0.25 0"/>
<feBlend mode="normal" in2="BackgroundImageFix" result="effect1_dropShadow"/>
<feBlend mode="normal" in="SourceGraphic" in2="effect1_dropShadow" result="shape"/>
</filter>
</defs>
</svg>
