<svg width="8" height="8" viewBox="0 0 8 8" fill="none" xmlns="http://www.w3.org/2000/svg">
<path fill-rule="evenodd" clip-rule="evenodd" d="M3.99993 0.333252C4.1268 0.333252 4.24267 0.405276 4.29883 0.519044L5.25135 2.44874L7.38147 2.76009C7.50699 2.77844 7.61122 2.86644 7.65034 2.98711C7.68947 3.10778 7.65671 3.24019 7.56584 3.3287L6.02477 4.82971L6.38846 6.95024C6.40991 7.0753 6.3585 7.20169 6.25584 7.27627C6.15318 7.35085 6.01708 7.36067 5.90478 7.30161L3.99993 6.29987L2.09508 7.30161C1.98277 7.36067 1.84668 7.35085 1.74402 7.27627C1.64136 7.20169 1.58994 7.0753 1.61139 6.95024L1.97509 4.82971L0.434017 3.3287C0.343145 3.24019 0.310387 3.10778 0.349513 2.98711C0.388639 2.86644 0.492866 2.77844 0.618386 2.76009L2.74851 2.44874L3.70103 0.519044C3.75718 0.405276 3.87306 0.333252 3.99993 0.333252ZM3.99993 1.41967L3.26883 2.90079C3.22032 2.99908 3.12659 3.06723 3.01814 3.08308L1.38273 3.32212L2.56584 4.47447C2.64446 4.55105 2.68035 4.66142 2.6618 4.7696L2.38265 6.39714L3.84478 5.62823C3.94191 5.57715 4.05795 5.57715 4.15508 5.62823L5.6172 6.39714L5.33806 4.7696C5.31951 4.66142 5.35539 4.55105 5.43402 4.47447L6.61712 3.32212L4.98172 3.08308C4.87327 3.06723 4.77954 2.99908 4.73103 2.90079L3.99993 1.41967Z" fill="#F2994A"/>
<path d="M2.33333 5L1 3L3 2.66667L4 1L5 2.66667L7 3.33333L5.66667 4.66667L6 7L4 6L2 7L2.33333 5Z" fill="#F2994A"/>
</svg>
